<svg xmlns="http://www.w3.org/2000/svg" xmlns:xlink="http://www.w3.org/1999/xlink" width="88" height="88" viewBox="0 0 88 88">
  <defs>
    <filter id="Elipse_332" x="0" y="0" width="88" height="88" filterUnits="userSpaceOnUse">
      <feOffset dy="3" input="SourceAlpha"/>
      <feGaussianBlur stdDeviation="3" result="blur"/>
      <feFlood flood-opacity="0.161"/>
      <feComposite operator="in" in2="blur"/>
      <feComposite in="SourceGraphic"/>
    </filter>
  </defs>
  <g id="btn-chat" transform="translate(-16621.367 1417.632)">
    <g transform="matrix(1, 0, 0, 1, 16621.37, -1417.63)" filter="url(#Elipse_332)">
      <circle id="Elipse_332-2" data-name="Elipse 332" cx="35" cy="35" r="35" transform="translate(9 6)" fill="#dcd222"/>
    </g>
    <path id="Subtração_2" data-name="Subtração 2" d="M20.026,20.3H6.388A6.835,6.835,0,0,1,1.6,18.819,5.872,5.872,0,0,1,0,14.327V7.163A7.86,7.86,0,0,1,1.6,2.078,5.969,5.969,0,0,1,6.388,0H29.444c1.171,0,1.852.218,2.023.647.229.575-.519,1.366-.852,1.68L26.413,5.7v8.626a5.873,5.873,0,0,1-1.6,4.492A6.833,6.833,0,0,1,20.026,20.3ZM7.9,10.029a1.4,1.4,0,0,0-1.516,1.432A1.482,1.482,0,0,0,7.9,12.895H18.51a1.4,1.4,0,0,0,1.516-1.433,1.481,1.481,0,0,0-1.516-1.432Zm0-4.3A1.477,1.477,0,0,0,6.388,7.163,1.477,1.477,0,0,0,7.9,8.6H20.026a1.477,1.477,0,0,0,1.515-1.432,1.477,1.477,0,0,0-1.515-1.432Z" transform="translate(16650.436 -1386.934)" fill="#fff"/>
  </g>
</svg>
