<svg xmlns="http://www.w3.org/2000/svg" width="19.328" height="19.328" viewBox="0 0 19.328 19.328">
  <path id="home" d="M18.664,8.456l-1.752-1.75V2.416A1.212,1.212,0,0,0,15.7,1.208H14.5a1.212,1.212,0,0,0-1.208,1.208v.668L10.872.67A1.694,1.694,0,0,0,9.664,0,1.694,1.694,0,0,0,8.456.67L.664,8.456A1.672,1.672,0,0,0,0,9.664a1.188,1.188,0,0,0,1.208,1.208H2.416V18.12a1.212,1.212,0,0,0,1.208,1.208H7.248v-6.04A1.212,1.212,0,0,1,8.456,12.08h2.416a1.212,1.212,0,0,1,1.208,1.208v6.04H15.7a1.212,1.212,0,0,0,1.208-1.208V10.872H18.12a1.188,1.188,0,0,0,1.208-1.208A1.672,1.672,0,0,0,18.664,8.456Z" fill="#fff"/>
</svg>
