<svg xmlns="http://www.w3.org/2000/svg" width="29.887" height="30.5" viewBox="0 0 29.887 30.5">
  <g id="historico" transform="translate(-12 -12.1)">
    <g id="Icon-Undo" transform="translate(12 12.1)">
      <path id="Fill-83" d="M-54.543-389.4a14.88,14.88,0,0,1-13.507-8.889l1.94-.92a12.824,12.824,0,0,0,11.567,7.587A12.85,12.85,0,0,0-41.857-404.65a12.85,12.85,0,0,0-12.687-13.028c-5.3,0-9.776,3.372-11.642,8.736l-2.015-.766c2.164-6.207,7.463-10.192,13.657-10.192a15.045,15.045,0,0,1,14.851,15.25A15.093,15.093,0,0,1-54.543-389.4" transform="translate(69.579 419.9)" fill="#0094d4"/>
      <path id="Fill-84" d="M-60.5-407.474H-70V-416.9h2.376v7.05H-60.5v2.376" transform="translate(70 419.199)" fill="#0094d4"/>
    </g>
  </g>
</svg>
