<svg xmlns="http://www.w3.org/2000/svg" width="22.95" height="22.95" viewBox="0 0 22.95 22.95">
  <g id="info" transform="translate(22.45 22.45) rotate(180)">
    <path id="Caminho_1349" data-name="Caminho 1349" d="M18.758,3.237A10.889,10.889,0,0,0,11.05,0h-.072A10.983,10.983,0,0,0,0,10.972,10.983,10.983,0,0,0,10.977,21.95a.535.535,0,0,0,.072,0A10.973,10.973,0,0,0,18.758,3.237ZM17.844,17.8a9.607,9.607,0,0,1-6.808,2.857h-.058a9.688,9.688,0,1,1,0-19.377h.058A9.685,9.685,0,0,1,17.844,17.8Z" fill="#dcd222" stroke="#dcd222" stroke-width="1"/>
    <path id="Uni達o_54" data-name="Uni達o 54" d="M0,6.736V1.83a1.828,1.828,0,1,1,3.656,0V6.736A1.737,1.737,0,0,1,1.83,8.48,1.73,1.73,0,0,1,0,6.736Z" transform="translate(9.201 4.622)" fill="#dcd222"/>
    <path id="Uni達o_53" data-name="Uni達o 53" d="M0,1.734A1.733,1.733,0,1,1,1.733,3.461,1.737,1.737,0,0,1,0,1.734Z" transform="translate(9.297 14.675)" fill="#dcd222"/>
  </g>
</svg>
