<svg xmlns="http://www.w3.org/2000/svg" width="47.574" height="47.574" viewBox="0 0 47.574 47.574">
  <g id="Grupo_2371" data-name="Grupo 2371" transform="translate(-244.936 -250)">
    <g id="Grupo_254" data-name="Grupo 254" transform="translate(244.936 250)" opacity="0.95">
      <path id="Caminho_206" data-name="Caminho 206" d="M23.787,0A23.787,23.787,0,1,1,0,23.787,23.787,23.787,0,0,1,23.787,0Z" transform="translate(0 0)" fill="#f2f2f2"/>
      <path id="ic_filter_24px" d="M14.546,9.412l-2.49,3.205L10.281,10.48l-2.49,3.2h9.96ZM2.811,4.622H1V19.11a1.816,1.816,0,0,0,1.811,1.811H17.3V19.11H2.811ZM19.11,1H6.433A1.816,1.816,0,0,0,4.622,2.811V15.488A1.816,1.816,0,0,0,6.433,17.3H19.11a1.816,1.816,0,0,0,1.811-1.811V2.811A1.816,1.816,0,0,0,19.11,1Zm0,14.488H6.433V2.811H19.11Z" transform="translate(12.873 12.873)" fill="#fff"/>
    </g>
  </g>
</svg>
