<?xml version="1.0"?>
<svg xmlns="http://www.w3.org/2000/svg" xmlns:xlink="http://www.w3.org/1999/xlink" xmlns:svgjs="http://svgjs.com/svgjs" version="1.1" width="512" height="512" x="0" y="0" viewBox="0 0 512 511" style="enable-background:new 0 0 512 512" xml:space="preserve" class=""><g><path xmlns="http://www.w3.org/2000/svg" d="m380.933594 77.289062-19.632813-76.789062h-210.601562l-19.632813 76.789062h-60.105468v-38.945312h-30v38.945312h-40.960938v357.617188h512v-357.617188zm101.066406 327.617188h-452v-297.617188h124.363281l19.628907-76.789062h164.015624l19.628907 76.789062h124.363281zm0 0" fill="#ffffff" data-original="#000000" style="" class=""/><path xmlns="http://www.w3.org/2000/svg" d="m306.613281 301.914062 30.910157-12.066406c-5.078126 10.347656-12.15625 19.699219-20.953126 27.445313-16.136718 14.214843-36.9375 22.042969-58.570312 22.042969-26.300781 0-51.09375-11.566407-68.023438-31.734376l-22.976562 19.285157c22.640625 26.976562 55.8125 42.449219 91 42.449219 28.941406 0 56.785156-10.488282 78.402344-29.53125 10.21875-9 18.714844-19.613282 25.226562-31.316407l8.261719 21.160157 27.945313-10.910157-28.683594-73.449219-73.449219 28.683594zm0 0" fill="#ffffff" data-original="#000000" style="" class=""/><path xmlns="http://www.w3.org/2000/svg" d="m258 131.820312c-56.949219 0-104.65625 40.292969-116.125 93.867188l-16.007812-19.050781-22.96875 19.300781 50.335937 59.910156 61.105469-50.1875-19.042969-23.183594-24.164063 19.847657c8.4375-40.214844 44.179688-70.507813 86.867188-70.507813 36.296875 0 68.585938 21.726563 82.257812 55.347656l27.789063-11.300781c-18.289063-44.980469-61.488281-74.042969-110.046875-74.042969zm0 0" fill="#ffffff" data-original="#000000" style="" class=""/></g></svg>
