<svg xmlns="http://www.w3.org/2000/svg" xmlns:xlink="http://www.w3.org/1999/xlink" width="60" height="60.227" viewBox="0 0 60 60.227">
  <defs>
    <clipPath id="clip-path">
      <path id="Polygon_7" data-name="Polygon 7" d="M42.524,0A4,4,0,0,1,46.1,2.217L59.112,28.33a4,4,0,0,1,0,3.567L46.1,58.01a4,4,0,0,1-3.58,2.217H17.476A4,4,0,0,1,13.9,58.01L.888,31.9a4,4,0,0,1,0-3.567L13.9,2.217A4,4,0,0,1,17.476,0Z" transform="translate(382 124)" fill="#c4c4c4"/>
    </clipPath>
    <linearGradient id="linear-gradient" x1="0.089" x2="0.724" y2="0.61" gradientUnits="objectBoundingBox">
      <stop offset="0" stop-color="#007965"/>
      <stop offset="1" stop-color="#007965" stop-opacity="0"/>
    </linearGradient>
    <linearGradient id="linear-gradient-2" x1="0.489" y1="0.067" x2="0.489" y2="1" gradientUnits="objectBoundingBox">
      <stop offset="0" stop-color="#e2f9f5"/>
      <stop offset="1" stop-color="#9abcb6"/>
    </linearGradient>
    <linearGradient id="linear-gradient-5" x1="0.485" y1="0.037" x2="0.485" y2="0.963" gradientUnits="objectBoundingBox">
      <stop offset="0" stop-color="#ffbc6d"/>
      <stop offset="1" stop-color="#de9239"/>
    </linearGradient>
    <linearGradient id="linear-gradient-8" x1="0.5" x2="0.5" y2="1" gradientUnits="objectBoundingBox">
      <stop offset="0" stop-color="#ee6f57"/>
      <stop offset="1" stop-color="#d64428"/>
    </linearGradient>
  </defs>
  <g id="escritor" transform="translate(-6736 -2536)">
    <path id="Polygon_2" data-name="Polygon 2" d="M23.866.539a4,4,0,0,1,4.011,0L49.748,13.214a4,4,0,0,1,1.994,3.461V42.052a4,4,0,0,1-1.994,3.461L27.877,58.188a4,4,0,0,1-4.011,0L1.994,45.513A4,4,0,0,1,0,42.052V16.675a4,4,0,0,1,1.994-3.461Z" transform="translate(6740.002 2536.623)" fill="#00af91"/>
    <g id="escritor-2" data-name="escritor" transform="translate(6354 2412)">
      <g id="Polygon_7-2" data-name="Polygon 7" clip-path="url(#clip-path)">
        <path id="Vector_11" data-name="Vector 11" d="M38.322,15.237,24.114,0,0,17.26,16.928,34.252v5L39.883,41Z" transform="translate(401.122 145.994)" fill="url(#linear-gradient)"/>
      </g>
    </g>
    <g id="Group_1053" data-name="Group 1053" transform="translate(6354 2412)">
      <path id="Vector_25" data-name="Vector 25" d="M5.239,0H.89A.257.257,0,0,0,.759.448a2.9,2.9,0,0,1,1.282,1.8C2.259,4.232,1.084,4.476.424,4.461L0,4.412a2.2,2.2,0,0,0,.424.048l4.532.517A2.5,2.5,0,1,0,5.239,0Z" transform="translate(414.385 143.766)" fill="#007965"/>
      <path id="Subtract" d="M11.789,21.99h0Z" transform="translate(402.304 143.018)" fill="url(#linear-gradient-2)"/>
      <path id="Subtract-2" data-name="Subtract" d="M.551,5.759a21.751,21.751,0,0,0,.636,11.868A2.683,2.683,0,0,1,3.226,16.7h8.638a.193.193,0,0,1,.154.3,6.683,6.683,0,0,0-.974,2.022c-.619,2.3.745,2.835,1.19,2.945a3.723,3.723,0,0,0,3.213-4.108c-.169-1.487-.336-3.268-.442-5.161-2.239,1.157-4.588.358-4.447-1.556A11.972,11.972,0,0,1,15.027,5.4c.063-.8.151-1.57.268-2.31C15.713.452,17.8.811,17.8.811a40.066,40.066,0,0,0-8-.808,27.406,27.406,0,0,0-4.478.26A4.846,4.846,0,0,0,1.8,2.578,11.853,11.853,0,0,0,.551,5.759Zm7.808-.451a9.627,9.627,0,0,0-4.508-.116.447.447,0,0,1-.554-.3.44.44,0,0,1,.3-.548A10.477,10.477,0,0,1,8.6,4.46.441.441,0,0,1,8.91,5,.447.447,0,0,1,8.359,5.308Zm-5.4,2.531a9.627,9.627,0,0,1,4.508.116.447.447,0,0,0,.551-.3.441.441,0,0,0-.307-.545,10.477,10.477,0,0,0-5.006-.114.44.44,0,0,0-.3.548A.447.447,0,0,0,2.959,7.839Z" transform="translate(402.304 143.018)" fill="url(#linear-gradient-2)"/>
      <path id="Subtract-3" data-name="Subtract" d="M10.558,11.139,8.9,15.791" transform="translate(402.304 143.018)" fill="url(#linear-gradient-2)"/>
      <path id="Vector" d="M14.214.538A11.781,11.781,0,0,0,2.161,8.244c-.214,2.919,5.365,3.245,7.508-2.012,1.7-4.179,3.163-4.813,4.593-5.385A.159.159,0,0,0,14.214.538Z" transform="translate(410.701 145.913)" fill="url(#linear-gradient-5)"/>
      <path id="Vector-2" data-name="Vector" d="M2.656,8.336a1.257,1.257,0,0,0,.568,1.151,2.541,2.541,0,0,0,1.743.321A5.616,5.616,0,0,0,9.206,6.044a12.433,12.433,0,0,1,2.51-4.211,5.614,5.614,0,0,1,1.047-.825A10.838,10.838,0,0,0,5.98,3.635,11.347,11.347,0,0,0,2.656,8.336Zm-.97-.251L.029,12.729a.5.5,0,1,0,.942.336L2.129,9.82a2.366,2.366,0,0,0,.531.494,3.528,3.528,0,0,0,2.434.486,6.6,6.6,0,0,0,5.037-4.379,11.489,11.489,0,0,1,2.289-3.88,5.4,5.4,0,0,1,2.026-1.23.658.658,0,0,0-.2-1.272A11.982,11.982,0,0,0,5.33,2.875,12.275,12.275,0,0,0,1.687,8.085Z" transform="translate(410.701 145.913)" fill="url(#linear-gradient-5)"/>
      <path id="Vector-3" data-name="Vector" d="M2.161,8.244.5,12.9" transform="translate(410.701 145.913)" fill="url(#linear-gradient-5)"/>
      <path id="Vector_26" data-name="Vector 26" d="M5.2,0C4.069.162,1.6,1,0,5.118" transform="translate(414.897 148.245)" fill="none" stroke="#f2f2f2" stroke-linecap="round" stroke-width="0.8"/>
      <path id="Vector_19" data-name="Vector 19" d="M2.647,0H13.942a.221.221,0,0,1,.173.344,6.654,6.654,0,0,0-.945,1.979c-.734,2.734,1.324,2.971,1.324,2.971H2.647A2.647,2.647,0,0,1,2.647,0Z" transform="translate(400.177 159.712)" fill="#007965"/>
    </g>
    <circle id="Ellipse_2" data-name="Ellipse 2" cx="5.5" cy="5.5" r="5.5" transform="translate(6747 2539)" fill="url(#linear-gradient-8)"/>
  </g>
</svg>
