<svg xmlns="http://www.w3.org/2000/svg" width="36.413" height="35.999" viewBox="0 0 36.413 35.999">
  <g id="Layer_2" transform="translate(-0.586 -1)">
    <g id="Grupo_1324" data-name="Grupo 1324" transform="translate(2 2)">
      <line id="Linha_142" data-name="Linha 142" y2="2" transform="translate(17 10)" fill="none" stroke="#0094d4" stroke-linecap="round" stroke-linejoin="round" stroke-miterlimit="10" stroke-width="2"/>
      <line id="Linha_143" data-name="Linha 143" y2="2" transform="translate(17 22)" fill="none" stroke="#0094d4" stroke-linecap="round" stroke-linejoin="round" stroke-miterlimit="10" stroke-width="2"/>
      <path id="Caminho_1562" data-name="Caminho 1562" d="M14.214,21.714h3.643a2.429,2.429,0,0,0,0-4.857H15.429a2.429,2.429,0,1,1,0-4.857h3.643" transform="translate(0.357 0.143)" fill="none" stroke="#0094d4" stroke-linecap="round" stroke-linejoin="round" stroke-miterlimit="10" stroke-width="2"/>
      <path id="Caminho_1563" data-name="Caminho 1563" d="M18.143,6A12.143,12.143,0,1,1,6,18.143V14.5" transform="translate(-1.143 -1.143)" fill="none" stroke="#0094d4" stroke-linecap="round" stroke-linejoin="round" stroke-miterlimit="10" stroke-width="2"/>
      <path id="Caminho_1564" data-name="Caminho 1564" d="M11.714,17.857,6.857,13,2,17.857" transform="translate(-2 0.357)" fill="none" stroke="#0094d4" stroke-linecap="round" stroke-linejoin="round" stroke-miterlimit="10" stroke-width="2"/>
      <path id="Caminho_1565" data-name="Caminho 1565" d="M16,2a17,17,0,0,1,0,34" transform="translate(1 -2)" fill="none" stroke="#0094d4" stroke-linecap="round" stroke-linejoin="round" stroke-miterlimit="10" stroke-width="2"/>
    </g>
  </g>
</svg>
