<svg xmlns="http://www.w3.org/2000/svg" width="38.999" height="29.492" viewBox="0 0 38.999 29.492">
  <path id="planos" d="M37.459,11.975H33.8L32.746,6.029A2.555,2.555,0,0,0,29.8,3.965L3.1,8.674a2.544,2.544,0,0,0-2.06,2.946L3.889,27.764a2.534,2.534,0,0,0,2.944,2.065l.973-.172v1.221a2.543,2.543,0,0,0,2.541,2.541H37.459A2.545,2.545,0,0,0,40,30.878V14.516A2.545,2.545,0,0,0,37.459,11.975Zm.1,2.541v2.39H10.253l.094-2.493ZM6.289,27.342,3.9,13.807l-.376-2.733L30.347,6.452l.974,5.523H10.347a2.543,2.543,0,0,0-2.541,2.541V27.139Zm31.17,3.639-27.215-.1V21.222h27.32v9.656A.1.1,0,0,1,37.459,30.981Z" transform="translate(-1.002 -3.927)" fill="#0094d4"/>
</svg>
