<svg xmlns="http://www.w3.org/2000/svg" width="42" height="26.606" viewBox="0 0 42 26.606">
  <g id="parceiros" transform="translate(0 -36.65)">
    <path id="Caminho_1566" data-name="Caminho 1566" d="M59.241,65.21,55.12,56.947a.86.86,0,0,0-.187-.248.781.781,0,0,0-.259-.156l-4.832-1.737a3.066,3.066,0,0,0-2.141.021l-3.666,1.4a7.824,7.824,0,0,0-.767.341c-.084.044-.167.091-.25.137a6.812,6.812,0,0,0-.867-.394,6.635,6.635,0,0,0-2.9-.4l-2.467.212a.753.753,0,0,0-.317.1.812.812,0,0,0-.251.233l-5.554,7.907a.888.888,0,0,0-.157.588.871.871,0,0,0,.251.548l2.416,2.394a1.961,1.961,0,0,0,1.6,2.9l.085,0a1.957,1.957,0,0,0,1.741,2.544,1.962,1.962,0,0,0,1.816,2.7,1.945,1.945,0,0,0,1.387-.576,1.967,1.967,0,0,0,1.812,1.661c.043,0,.087,0,.13,0a1.944,1.944,0,0,0,.681-.125,2.013,2.013,0,0,0,1.2.342,2.056,2.056,0,0,0,1.392-.636l-1.329-1.326c0-.031.009-.06.01-.092a1.959,1.959,0,0,0-.1-.747l2.719,2.712a2.638,2.638,0,0,0,1.105.194,2.736,2.736,0,0,0,1.962-.968l.272-.316a.437.437,0,0,0,.061-.1L45.536,71.9a.3.3,0,0,1-.021-.4.249.249,0,0,1,.369-.008l4.979,4.965a2.313,2.313,0,0,0,.864.129,2.4,2.4,0,0,0,1.726-.852l.658-.761a.978.978,0,0,0,.232-.67l-4.369-4.356a.3.3,0,0,1-.021-.4.249.249,0,0,1,.369-.008l4.39,4.377a1.89,1.89,0,0,0,.564.064,1.966,1.966,0,0,0,1.413-.7l.177-.2A2.3,2.3,0,0,0,56.759,70l-1.172-1.168.3.295,3.169-2.861a.858.858,0,0,0,.268-.49A.9.9,0,0,0,59.241,65.21ZM34.823,69.943a1.115,1.115,0,0,1,.072-2.228l.075,0a1.115,1.115,0,1,1-.146,2.226Zm1.9,2.551a1.115,1.115,0,0,1-.822-1.869l.665-.7.11-.117a1.115,1.115,0,1,1,1.62,1.533l-.31.328-.21.222-.035.038-.139.146-.064.068-.01.011A1.1,1.1,0,0,1,36.723,72.494Zm2.49,2.357a1.115,1.115,0,0,1-1.569.035,1.118,1.118,0,0,1-.057-1.562l.555-.587h0l.215-.227c.377-.4.5-.528.542-.573l.014-.014h0l.058-.062A1.115,1.115,0,1,1,40.591,73.4Zm2.452,1.428a1.115,1.115,0,0,1,.071-2.229l.075,0a1.115,1.115,0,0,1-.146,2.226ZM55.3,68.541l-8.68-8.654h0l.1-.247a.474.474,0,0,0-.03-.409.408.408,0,0,0-.329-.209l-.645-.039h0l-.7-.042-.054.835a9.708,9.708,0,0,1-1.109,3.633,5.141,5.141,0,0,1-2.509,2.408,3.684,3.684,0,0,1-.654.085.764.764,0,0,1-.326-.059l-.329-.153a.582.582,0,0,1-.3-.332.639.639,0,0,1,0-.447l3.3-7.245.561-.37.226-.086h0l4.149-1.583a2.334,2.334,0,0,1,.811-.154H48.8a2.331,2.331,0,0,1,.791.139l4.832,1.737,4.121,8.262Z" transform="translate(-24.097 -14.2)" fill="#0094d4"/>
    <path id="Caminho_1567" data-name="Caminho 1567" d="M154.4,40.557l-3.262,1.626a2.051,2.051,0,0,0-.92,2.751l4.271,8.563a2.052,2.052,0,0,0,2.75.92l3.262-1.627Zm2.831,12.237a.786.786,0,1,1,.786-.785A.786.786,0,0,1,157.236,52.794Z" transform="translate(-118.506 -3.087)" fill="#0094d4"/>
    <path id="Caminho_1568" data-name="Caminho 1568" d="M0,47.835l2.982,2.1a2.05,2.05,0,0,0,2.856-.5l5.5-7.83a2.05,2.05,0,0,0-.5-2.857L7.858,36.65Zm2.572-.4a.786.786,0,1,1,.66.894A.786.786,0,0,1,2.572,47.434Z" fill="#0094d4"/>
  </g>
</svg>
