<svg id="_1" data-name="1" xmlns="http://www.w3.org/2000/svg" width="26.694" height="17.026" viewBox="0 0 26.694 17.026">
  <path id="Caminho_1448" data-name="Caminho 1448" d="M79.828,138.512h-24.7a1,1,0,0,1,0-1.992h24.7a1,1,0,1,1,0,1.992Z" transform="translate(-54.13 -136.52)" fill="#fff"/>
  <path id="Caminho_1449" data-name="Caminho 1449" d="M79.828,251.712h-24.7a1,1,0,1,1,0-1.992h24.7a1,1,0,1,1,0,1.992Z" transform="translate(-54.13 -242.203)" fill="#fff"/>
  <path id="Caminho_1450" data-name="Caminho 1450" d="M79.828,364.912h-24.7a1,1,0,1,1,0-1.992h24.7a1,1,0,1,1,0,1.992Z" transform="translate(-54.13 -347.886)" fill="#fff"/>
</svg>
