<svg xmlns="http://www.w3.org/2000/svg" xmlns:xlink="http://www.w3.org/1999/xlink" width="60" height="60" viewBox="0 0 60 60">
  <defs>
    <linearGradient id="linear-gradient" x1="0.5" x2="0.5" y2="1" gradientUnits="objectBoundingBox">
      <stop offset="0" stop-color="#ee6f57"/>
      <stop offset="1" stop-color="#d64428"/>
    </linearGradient>
    <clipPath id="clip-path">
      <path id="Polygon_7" data-name="Polygon 7" d="M42.528,0a4,4,0,0,1,3.578,2.211l13,26a4,4,0,0,1,0,3.578l-13,26A4,4,0,0,1,42.528,60H17.472a4,4,0,0,1-3.578-2.211l-13-26a4,4,0,0,1,0-3.578l13-26A4,4,0,0,1,17.472,0Z" transform="translate(586 124)" fill="#c4c4c4"/>
    </clipPath>
    <linearGradient id="linear-gradient-2" x1="0.089" x2="0.725" y2="0.646" gradientUnits="objectBoundingBox">
      <stop offset="0" stop-color="#cb9817"/>
      <stop offset="1" stop-color="#cb9817" stop-opacity="0"/>
    </linearGradient>
    <linearGradient id="linear-gradient-3" x1="0.5" y1="0.081" x2="0.485" y2="1.111" gradientUnits="objectBoundingBox">
      <stop offset="0" stop-color="#ffb24b"/>
      <stop offset="1" stop-color="#f88f01"/>
    </linearGradient>
    <linearGradient id="linear-gradient-5" x1="0.374" x2="0.556" y2="1.172" gradientUnits="objectBoundingBox">
      <stop offset="0" stop-color="#fff"/>
      <stop offset="1" stop-color="#ccccd7"/>
    </linearGradient>
  </defs>
  <g id="popular" transform="translate(-6940 -2536)">
    <path id="Polygon_4" data-name="Polygon 4" d="M23.981.536a4,4,0,0,1,4,0L49.962,13.226a4,4,0,0,1,2,3.464V42.072a4,4,0,0,1-2,3.464L27.981,58.226a4,4,0,0,1-4,0L2,45.536a4,4,0,0,1-2-3.464V16.691a4,4,0,0,1,2-3.464Z" transform="translate(6944.019 2536.619)" fill="#ffcf57"/>
    <circle id="Ellipse_1" data-name="Ellipse 1" cx="5.5" cy="5.5" r="5.5" transform="translate(6951 2539)" fill="url(#linear-gradient)"/>
    <g id="logo" transform="translate(6354 2412)">
      <g id="Polygon_7-2" data-name="Polygon 7" clip-path="url(#clip-path)">
        <path id="Vector_11" data-name="Vector 11" d="M20.484,0l18,18,1.567,25.779L17,42.024v-5l-17-17Z" transform="translate(604.949 143.221)" fill="url(#linear-gradient-2)"/>
      </g>
    </g>
    <g id="Group_1048" data-name="Group 1048" transform="translate(6354 2412)">
      <rect id="Rectangle_153" data-name="Rectangle 153" width="22" height="22" rx="3" transform="translate(605 143)" fill="#222831"/>
      <rect id="Rectangle_154" data-name="Rectangle 154" width="8.25" height="8.25" rx="1" transform="translate(606.833 144.833)" fill="url(#linear-gradient-3)"/>
      <g id="Group_1043" data-name="Group 1043">
        <line id="Line_7" data-name="Line 7" x2="4.583" transform="translate(610.5 146.667) rotate(90)" fill="none" stroke="#fff" stroke-linecap="round" stroke-width="0.8"/>
        <line id="Line_8" data-name="Line 8" x2="4.583" transform="translate(608.667 149.417)" fill="none" stroke="#fff" stroke-linecap="round" stroke-width="0.8"/>
      </g>
      <rect id="Rectangle_156" data-name="Rectangle 156" width="8.25" height="8.25" rx="1" transform="translate(606.833 154.917)" fill="url(#linear-gradient-3)"/>
      <g id="Group_1045" data-name="Group 1045">
        <line id="Line_7-2" data-name="Line 7" x2="4.583" transform="translate(612.255 157.097) rotate(135)" fill="none" stroke="#fff" stroke-linecap="round" stroke-width="0.8"/>
        <line id="Line_8-2" data-name="Line 8" x2="4.583" transform="translate(609.014 157.745) rotate(45)" fill="none" stroke="#fff" stroke-linecap="round" stroke-width="0.8"/>
      </g>
      <rect id="Rectangle_155" data-name="Rectangle 155" width="8.25" height="8.25" rx="1" transform="translate(616.917 144.833)" fill="url(#linear-gradient-5)"/>
      <g id="Group_1044" data-name="Group 1044">
        <line id="Line_8-3" data-name="Line 8" x2="4.583" transform="translate(618.75 149.417)" fill="none" stroke="#00303f" stroke-linecap="round" stroke-width="0.8"/>
      </g>
      <rect id="Rectangle_157" data-name="Rectangle 157" width="8.25" height="8.25" rx="1" transform="translate(616.917 154.917)" fill="url(#linear-gradient-3)"/>
      <g id="Group_1047" data-name="Group 1047">
        <g id="Group_1046" data-name="Group 1046">
          <line id="Line_8-4" data-name="Line 8" x2="4.583" transform="translate(618.75 159.5)" fill="none" stroke="#fff" stroke-linecap="round" stroke-width="0.8"/>
        </g>
        <circle id="Ellipse_98" data-name="Ellipse 98" cx="0.458" cy="0.458" r="0.458" transform="translate(620.583 156.75)" fill="#fff"/>
        <circle id="Ellipse_99" data-name="Ellipse 99" cx="0.458" cy="0.458" r="0.458" transform="translate(620.583 160.417)" fill="#fff"/>
      </g>
    </g>
  </g>
</svg>
