<svg xmlns="http://www.w3.org/2000/svg" width="18.537" height="22.2" viewBox="0 0 18.537 22.2">
  <g id="lista5" transform="translate(-4.31 -2)">
    <path id="Caminho_1567" data-name="Caminho 1567" d="M20.627,5.655H18.581v-1.7A1.958,1.958,0,0,0,16.623,2H6.268A1.958,1.958,0,0,0,4.31,3.958V18.586a1.958,1.958,0,0,0,1.958,1.958H8.576V21.98A2.22,2.22,0,0,0,10.8,24.2h9.831a2.22,2.22,0,0,0,2.22-2.22V7.875a2.22,2.22,0,0,0-2.22-2.22ZM6.268,19.062a.484.484,0,0,1-.484-.476V3.958a.484.484,0,0,1,.484-.476H16.623a.484.484,0,0,1,.484.476v1.7H10.764a2.22,2.22,0,0,0-2.22,2.22V19.062ZM21.332,21.98a.745.745,0,0,1-.745.737H10.8a.745.745,0,0,1-.745-.737V7.875a.745.745,0,0,1,.745-.737h9.831a.745.745,0,0,1,.745.737Z" transform="translate(0 0)" fill="#fff"/>
    <path id="Caminho_1568" data-name="Caminho 1568" d="M21.287,13.529H13.675a.745.745,0,1,0,0,1.483h7.611a.745.745,0,1,0,0-1.483Z" transform="translate(-1.77 -2.387)" fill="#fff"/>
    <path id="Caminho_1569" data-name="Caminho 1569" d="M21.287,17.369H13.675a.745.745,0,1,0,0,1.483h7.611a.745.745,0,1,0,0-1.483Z" transform="translate(-1.77 -3.183)" fill="#fff"/>
    <path id="Caminho_1570" data-name="Caminho 1570" d="M21.309,21.22H13.7a.737.737,0,0,0,0,1.475h7.611a.737.737,0,0,0,0-1.475Z" transform="translate(-1.792 -3.982)" fill="#fff"/>
  </g>
</svg>
