<svg xmlns="http://www.w3.org/2000/svg" width="96.512" height="39.75" viewBox="0 0 96.512 39.75">
  <g id="vik-logo-negativo" transform="translate(0 0.005)">
    <path id="Caminho_16" data-name="Caminho 16" d="M1889.24,2018.6c2.254-5.527,4.328-11.8,6.537-17.245a3.354,3.354,0,0,1,3.425-2.313c1.848,0,3.922,1.607,3.922,3.292a2.425,2.425,0,0,1-.314,1.137l-9.24,22.654c-.946,2.313-2.389,3.449-4.372,3.449-1.848,0-3.2-1.058-4.056-3.135l-9.554-23.046a4.312,4.312,0,0,1-.225-1.254c0-2.077,1.219-3.136,3.606-3.136a3.509,3.509,0,0,1,3.606,2.313Z" transform="translate(-1851.648 -1998.63)" fill="#fff" stroke="#fff" stroke-miterlimit="10" stroke-width="0.75"/>
    <path id="Caminho_17" data-name="Caminho 17" d="M2614.72,2003.174c0-2.155,1.219-3.174,3.606-3.174,2.434,0,3.651,1.019,3.651,3.174v24.183c0,2.156-1.219,3.175-3.651,3.175-2.389,0-3.606-1.018-3.606-3.175Z" transform="translate(-2561.938 -1999.591)" fill="#fff" stroke="#fff" stroke-miterlimit="10" stroke-width="0.75"/>
    <path id="Caminho_18" data-name="Caminho 18" d="M2864.64,2002.9c0-1.96,1.219-2.9,3.561-2.9,2.434,0,3.651.94,3.651,2.9v8.544l10.953-10.465a3.269,3.269,0,0,1,2.477-.9c1.938,0,3.786,1.607,3.786,3.253a2.576,2.576,0,0,1-1.037,2.195c-2.883,2.783-4.82,4.507-7.8,7.37l8.744,12.424a2.587,2.587,0,0,1,.9,2.077c0,2.078-2.659,3.175-3.651,3.175a4.025,4.025,0,0,1-3.155-1.45l-8.113-11.484-3.111,2.9v7.015c0,1.96-1.171,2.979-3.561,2.979-2.434,0-3.651-1.019-3.651-2.979Z" transform="translate(-2802.032 -1999.591)" fill="#fff" stroke="#fff" stroke-miterlimit="10" stroke-width="0.75"/>
    <path id="Caminho_19" data-name="Caminho 19" d="M2869.06,2817.284a2.441,2.441,0,0,0,.389.244,3.008,3.008,0,0,0,.436.181,3.048,3.048,0,0,0,.449.11,2.64,2.64,0,0,0,.433.039,1.905,1.905,0,0,0,1.2-.314,1.092,1.092,0,0,0,.4-.91,1.25,1.25,0,0,0-.093-.5,1.227,1.227,0,0,0-.29-.4,3.05,3.05,0,0,0-.494-.37c-.2-.123-.436-.26-.708-.415q-.451-.252-.771-.475a2.841,2.841,0,0,1-.524-.457,1.533,1.533,0,0,1-.3-.506,1.836,1.836,0,0,1-.1-.617,1.677,1.677,0,0,1,.181-.784,1.824,1.824,0,0,1,.491-.589,2.241,2.241,0,0,1,.723-.375,2.9,2.9,0,0,1,.884-.131,3.571,3.571,0,0,1,1.387.236v.738a2.833,2.833,0,0,0-1.46-.366,2.181,2.181,0,0,0-.59.079,1.523,1.523,0,0,0-.485.229,1.107,1.107,0,0,0-.329.375,1.085,1.085,0,0,0-.118.52,1.319,1.319,0,0,0,.079.485,1.165,1.165,0,0,0,.26.384,2.458,2.458,0,0,0,.472.36q.291.178.713.409a8.508,8.508,0,0,1,.769.469,3.056,3.056,0,0,1,.546.477,1.778,1.778,0,0,1,.326.528,1.707,1.707,0,0,1,.108.62,1.925,1.925,0,0,1-.171.831,1.612,1.612,0,0,1-.481.6,2.179,2.179,0,0,1-.734.357,3.455,3.455,0,0,1-.936.12,3.171,3.171,0,0,1-.4-.028c-.155-.018-.309-.045-.466-.078a4.238,4.238,0,0,1-.448-.126,1.574,1.574,0,0,1-.345-.157Z" transform="translate(-2806.278 -2778.722)" fill="#fff"/>
    <path id="Caminho_20" data-name="Caminho 20" d="M2996.312,2866.118a2.952,2.952,0,0,0,.123.849,1.815,1.815,0,0,0,.338.638,1.448,1.448,0,0,0,.537.4,1.776,1.776,0,0,0,.712.139,2.523,2.523,0,0,0,1.6-.608v.632a2.874,2.874,0,0,1-1.744.528,2.264,2.264,0,0,1-.917-.181,1.9,1.9,0,0,1-.7-.525,2.422,2.422,0,0,1-.446-.847,3.87,3.87,0,0,1-.157-1.146,3.238,3.238,0,0,1,.172-1.07,2.639,2.639,0,0,1,.476-.852,2.207,2.207,0,0,1,.72-.563,2.049,2.049,0,0,1,.911-.2,2,2,0,0,1,.858.174,1.685,1.685,0,0,1,.625.494,2.278,2.278,0,0,1,.385.784,3.736,3.736,0,0,1,.132,1.035v.322Zm2.98-.562a2,2,0,0,0-.373-1.246,1.21,1.21,0,0,0-.995-.442,1.482,1.482,0,0,0-.59.115,1.4,1.4,0,0,0-.478.335,1.806,1.806,0,0,0-.34.532,2.7,2.7,0,0,0-.189.708Z" transform="translate(-2927.9 -2828.957)" fill="#fff"/>
    <path id="Caminho_21" data-name="Caminho 21" d="M3138.25,2864.76a.915.915,0,0,0-.568-.166.967.967,0,0,0-.441.1,1.115,1.115,0,0,0-.335.264,1.594,1.594,0,0,0-.245.383,2.9,2.9,0,0,0-.162.456,3.475,3.475,0,0,0-.088.477,4,4,0,0,0-.026.458v2.517h-.623V2864.1h.623v1.1h.02a2.25,2.25,0,0,1,.222-.5,1.555,1.555,0,0,1,.311-.378,1.285,1.285,0,0,1,.385-.233,1.2,1.2,0,0,1,.438-.079,1.746,1.746,0,0,1,.272.021.978.978,0,0,1,.218.061Z" transform="translate(-3062.492 -2829.629)" fill="#fff"/>
    <path id="Caminho_22" data-name="Caminho 22" d="M3216.468,2871.525h-.6l-1.92-5.145h.69l1.386,3.919a3.013,3.013,0,0,1,.162.629h.021a3.163,3.163,0,0,1,.152-.608l1.436-3.939h.67Z" transform="translate(-3137.608 -2831.907)" fill="#fff"/>
    <path id="Caminho_23" data-name="Caminho 23" d="M3348.291,2810.944a.436.436,0,0,1-.315-.131.444.444,0,0,1-.132-.332.445.445,0,0,1,.447-.453.487.487,0,0,1,.176.033.415.415,0,0,1,.145.093.45.45,0,0,1,.135.326.479.479,0,0,1-.035.181.41.41,0,0,1-.1.148.456.456,0,0,1-.144.1A.463.463,0,0,1,3348.291,2810.944Zm-.309,6.446v-5.146h.629v5.146Z" transform="translate(-3266.238 -2777.771)" fill="#fff"/>
    <path id="Caminho_24" data-name="Caminho 24" d="M3403.281,2868.348a2.578,2.578,0,0,1-1.352.358,2.283,2.283,0,0,1-.97-.191,2.133,2.133,0,0,1-.735-.545,2.45,2.45,0,0,1-.466-.824,3.211,3.211,0,0,1-.162-1.033,3.4,3.4,0,0,1,.172-1.087,2.62,2.62,0,0,1,.5-.889,2.359,2.359,0,0,1,.8-.6,2.551,2.551,0,0,1,1.087-.221,2.611,2.611,0,0,1,1.137.246v.685a2.074,2.074,0,0,0-1.186-.372,1.749,1.749,0,0,0-.793.174,1.7,1.7,0,0,0-.585.472,2.127,2.127,0,0,0-.363.7,2.843,2.843,0,0,0-.125.847,2.931,2.931,0,0,0,.105.789,1.96,1.96,0,0,0,.324.665,1.579,1.579,0,0,0,.55.46,1.707,1.707,0,0,0,.784.171,2.055,2.055,0,0,0,1.274-.433Z" transform="translate(-3315.955 -2828.962)" fill="#fff"/>
    <path id="Caminho_25" data-name="Caminho 25" d="M3515.632,2866.119a2.926,2.926,0,0,0,.123.849,1.807,1.807,0,0,0,.338.638,1.45,1.45,0,0,0,.537.4,1.776,1.776,0,0,0,.712.138,2.519,2.519,0,0,0,1.6-.607v.632a2.88,2.88,0,0,1-1.746.528,2.25,2.25,0,0,1-.916-.181,1.933,1.933,0,0,1-.7-.525,2.423,2.423,0,0,1-.445-.847,3.854,3.854,0,0,1-.157-1.146,3.211,3.211,0,0,1,.171-1.07,2.672,2.672,0,0,1,.475-.852,2.188,2.188,0,0,1,.721-.563,2.048,2.048,0,0,1,.911-.2,2.022,2.022,0,0,1,.858.174,1.694,1.694,0,0,1,.625.494,2.252,2.252,0,0,1,.384.784,3.784,3.784,0,0,1,.133,1.035v.322Zm2.979-.562a2,2,0,0,0-.372-1.246,1.211,1.211,0,0,0-1-.442,1.5,1.5,0,0,0-.59.115,1.409,1.409,0,0,0-.478.334,1.817,1.817,0,0,0-.34.533,2.774,2.774,0,0,0-.189.707Z" transform="translate(-3426.801 -2828.958)" fill="#fff"/>
    <path id="Caminho_26" data-name="Caminho 26" d="M3647.8,2867.66a2.016,2.016,0,0,0,.309.206,2.646,2.646,0,0,0,.343.158,2.1,2.1,0,0,0,.354.1,1.879,1.879,0,0,0,.341.032q1.118,0,1.117-.859a.707.707,0,0,0-.078-.34.865.865,0,0,0-.226-.261,1.86,1.86,0,0,0-.354-.219c-.137-.067-.292-.136-.466-.21a4.667,4.667,0,0,1-.6-.3,1.784,1.784,0,0,1-.411-.33,1.177,1.177,0,0,1-.241-.393,1.416,1.416,0,0,1-.079-.486,1.263,1.263,0,0,1,.146-.607,1.4,1.4,0,0,1,.389-.453,1.8,1.8,0,0,1,.567-.284,2.343,2.343,0,0,1,.673-.1,2.429,2.429,0,0,1,1.136.252v.679a2.162,2.162,0,0,0-1.214-.372,1.44,1.44,0,0,0-.429.06,1,1,0,0,0-.331.171.785.785,0,0,0-.214.264.745.745,0,0,0-.075.339.865.865,0,0,0,.059.334.739.739,0,0,0,.183.26,1.593,1.593,0,0,0,.324.221c.131.07.292.145.483.226a6.083,6.083,0,0,1,.626.3,1.939,1.939,0,0,1,.437.322,1.137,1.137,0,0,1,.254.386,1.354,1.354,0,0,1,.083.5,1.3,1.3,0,0,1-.526,1.075,1.765,1.765,0,0,1-.581.281,2.632,2.632,0,0,1-.725.095,2.364,2.364,0,0,1-1.279-.326Z" transform="translate(-3554.4 -2828.966)" fill="#fff"/>
    <path id="Caminho_27" data-name="Caminho 27" d="M0,38.76,11.552,53.608.179,65.063" transform="translate(0 -36.881)" fill="#fff" opacity="0.75"/>
    <path id="Caminho_28" data-name="Caminho 28" d="M301.95,41.88l11.842,14.606L302.646,68.174" transform="translate(-290.078 -39.878)" fill="#fff" opacity="0.86"/>
    <path id="Caminho_29" data-name="Caminho 29" d="M149.41,43.64l11.1,14.6L149.33,69.946" transform="translate(-143.459 -41.569)" fill="#fff" opacity="0.82"/>
  </g>
</svg>
